<svg width="30" height="22" viewBox="0 0 30 22" fill="none" xmlns="http://www.w3.org/2000/svg">
<path d="M29.3748 4.13385C29.2049 3.52788 28.874 2.97928 28.4173 2.54634C27.9477 2.1001 27.372 1.78089 26.7448 1.61884C24.3973 1.00009 14.9923 1.0001 14.9923 1.0001C11.0715 0.955486 7.15158 1.15169 3.2548 1.58759C2.62753 1.76161 2.053 2.08795 1.58229 2.5376C1.11979 2.9826 0.784795 3.53135 0.609795 4.1326C0.189411 6.39727 -0.0148401 8.69678 -0.000205083 11.0001C-0.0152051 13.3013 0.188545 15.6001 0.609795 17.8676C0.781045 18.4663 1.11479 19.0126 1.57854 19.4538C2.04229 19.8951 2.6198 20.2138 3.2548 20.3826C5.63354 21.0001 14.9923 21.0001 14.9923 21.0001C18.9181 21.0448 22.843 20.8486 26.7448 20.4126C27.372 20.2506 27.9477 19.9313 28.4173 19.4851C28.8739 19.0522 29.2044 18.5036 29.3735 17.8976C29.8049 15.6338 30.0146 13.3333 29.9998 11.0288C30.0322 8.7146 29.8228 6.4033 29.3748 4.1326V4.13385ZM12.0023 15.2801V6.72134L19.8273 11.0013L12.0023 15.2801Z" fill="white" fill-opacity="0.6"/>
</svg>
